<?xml version="1.0" encoding="UTF-8" standalone="no"?>
<!-- Created with Inkscape (http://www.inkscape.org/) -->

<svg
   version="1.1"
   id="svg1"
   width="639.6416"
   height="178.79909"
   viewBox="0 0 639.6416 178.79909"
   xmlns:xlink="http://www.w3.org/1999/xlink"
   xmlns="http://www.w3.org/2000/svg"
   xmlns:svg="http://www.w3.org/2000/svg">
  <defs
     id="defs1">
    <linearGradient
       id="linearGradient8">
      <stop
         style="stop-color:#0863cc;stop-opacity:1;"
         offset="0"
         id="stop7" />
      <stop
         style="stop-color:#07d8dd;stop-opacity:1;"
         offset="1"
         id="stop8" />
    </linearGradient>
    <linearGradient
       xlink:href="#linearGradient8"
       id="linearGradient35"
       gradientUnits="userSpaceOnUse"
       gradientTransform="matrix(1.0963231,0,0,1.0963231,3722.3535,3272.9341)"
       x1="2230.2671"
       y1="212.86391"
       x2="2334.8037"
       y2="300.58051" />
  </defs>
  <g
     id="g1"
     transform="translate(-6150.1606,-3479.7949)">
    <path
       style="font-weight:800;font-size:96px;font-family:Manrope;-inkscape-font-specification:'Manrope Ultra-Bold';display:inline;fill:#1d2635;fill-opacity:1"
       d="m 6363.1142,3589.1902 c -6.912,0 -12.88,-1.504 -17.904,-4.512 -4.992,-3.008 -8.848,-7.216 -11.568,-12.624 -2.688,-5.408 -4.032,-11.696 -4.032,-18.864 0,-7.168 1.344,-13.456 4.032,-18.864 2.72,-5.408 6.576,-9.616 11.568,-12.624 5.024,-3.008 10.992,-4.512 17.904,-4.512 6.912,0 12.864,1.504 17.856,4.512 5.024,3.008 8.88,7.216 11.568,12.624 2.72,5.408 4.08,11.696 4.08,18.864 0,7.168 -1.36,13.456 -4.08,18.864 -2.688,5.408 -6.544,9.616 -11.568,12.624 -4.992,3.008 -10.944,4.512 -17.856,4.512 z m 0,-12.288 c 4.384,0.064 8.032,-0.88 10.944,-2.832 2.912,-1.952 5.088,-4.72 6.528,-8.304 1.472,-3.584 2.208,-7.776 2.208,-12.576 0,-4.8 -0.736,-8.96 -2.208,-12.48 -1.44,-3.52 -3.616,-6.256 -6.528,-8.208 -2.912,-1.952 -6.56,-2.96 -10.944,-3.024 -4.384,-0.064 -8.032,0.88 -10.944,2.832 -2.912,1.952 -5.104,4.72 -6.576,8.304 -1.44,3.584 -2.16,7.776 -2.16,12.576 0,4.8 0.72,8.96 2.16,12.48 1.472,3.52 3.664,6.256 6.576,8.208 2.912,1.952 6.56,2.96 10.944,3.024 z m 47.1039,10.848 v -21.059 -14.6187 -33.4423 h 27.648 c 4.928,0 8.912,0.992 11.952,2.976 3.04,1.952 5.264,4.416 6.672,7.392 1.408,2.976 2.112,5.984 2.112,9.024 0,3.872 -0.88,7.088 -2.64,9.648 -1.728,2.56 -4.112,4.272 -7.152,5.136 v -2.4 c 4.32,0.896 7.552,2.896 9.696,6 2.176,3.104 3.264,6.576 3.264,10.416 0,4.128 -0.768,7.76 -2.304,10.896 -1.504,3.136 -3.808,5.6 -6.912,7.392 -3.104,1.76 -7.008,2.64 -11.712,2.64 z m 13.248,-12.288 h 16.032 c 1.76,0 3.328,-0.368 4.704,-1.104 1.376,-0.768 2.448,-1.824 3.216,-3.168 0.8,-1.376 1.2,-2.992 1.2,-4.848 0,-1.632 -0.336,-3.088 -1.008,-4.368 -0.672,-1.28 -1.696,-2.288 -3.072,-3.024 -1.344,-0.768 -3.024,-1.152 -5.04,-1.152 h -16.032 z m 0,-29.856 h 14.208 c 1.472,0 2.784,-0.256 3.936,-0.768 1.152,-0.512 2.064,-1.296 2.736,-2.352 0.672,-1.088 1.008,-2.48 1.008,-4.176 0,-2.112 -0.656,-3.888 -1.968,-5.328 -1.312,-1.44 -3.216,-2.16 -5.712,-2.16 h -14.208 z m 51.9039,42.144 v -69.12 h 45.12 v 12.192 h -32.064 v 14.784 h 26.304 v 12.192 h -26.304 v 17.76 h 32.064 v 12.192 z m 60.64,0 v -69.12 h 13.248 l 30.048,46.08 v -46.08 h 13.248 v 69.12 h -13.248 l -30.048,-46.08 v 46.08 z m 88.016,0 v -56.928 h -21.792 v -12.192 h 56.64 v 12.192 h -21.792 v 56.928 z m 44.5281,0 v -69.12 h 29.184 c 0.672,0 1.568,0.032 2.688,0.096 1.152,0.032 2.176,0.128 3.072,0.288 4.128,0.64 7.504,2 10.128,4.08 2.656,2.08 4.608,4.704 5.856,7.872 1.248,3.136 1.872,6.64 1.872,10.512 0,5.792 -1.44,10.752 -4.32,14.88 -2.88,4.096 -7.392,6.624 -13.536,7.584 l -5.76,0.384 h -16.128 v 23.424 z m 38.976,0 -13.632,-28.128 13.44,-2.592 14.976,30.72 z m -25.92,-35.616 h 15.552 c 0.672,0 1.408,-0.032 2.208,-0.096 0.8,-0.064 1.536,-0.192 2.208,-0.384 1.76,-0.48 3.12,-1.28 4.08,-2.4 0.96,-1.152 1.616,-2.416 1.968,-3.792 0.384,-1.408 0.576,-2.736 0.576,-3.984 0,-1.248 -0.192,-2.56 -0.576,-3.936 -0.352,-1.408 -1.008,-2.672 -1.968,-3.792 -0.96,-1.152 -2.32,-1.968 -4.08,-2.448 -0.672,-0.192 -1.408,-0.32 -2.208,-0.384 -0.8,-0.064 -1.536,-0.096 -2.208,-0.096 h -15.552 z m 48.464,35.616 19.12,-69.12 h 19.488 l 21.12,69.12 h -13.44 l -18.816,-60.96 h 2.496 l -18.528,60.96 z m 10.672,-14.4 v -12.192 h 36.48 v 12.192 z"
       id="text1-4-3-1-7-3-1-9-9-9"
       aria-label="OBENTRA" />
    <text
       xml:space="preserve"
       style="font-style:normal;font-variant:normal;font-weight:500;font-stretch:normal;font-size:42.6667px;font-family:Inter;-inkscape-font-specification:'Inter Medium';text-align:start;writing-mode:lr-tb;direction:ltr;text-anchor:start;fill:#1d2635;fill-opacity:1"
       x="6337.1167"
       y="3649.8857"
       id="text2-90-9-1-1-0-1-6-4-1"><tspan
         id="tspan2-9-7-5-0-1-8-7-4-3"
         x="6337.1167"
         y="3649.8857">Komplexe IT. Einfach.</tspan></text>
    <circle
       style="fill:none;stroke:url(#linearGradient35);stroke-width:29.941;stroke-dasharray:none"
       id="path2-6-7-0-0-9-1-8-7-8"
       cx="6224.75"
       cy="3554.3843"
       r="59.618851" />
    <rect
       style="fill:none;fill-opacity:1;stroke:none;stroke-width:25.6185;stroke-dasharray:none;stroke-opacity:1"
       id="rect35"
       width="746.33539"
       height="280.13138"
       x="6099.5024"
       y="3433.1428" />
  </g>
</svg>
