<?xml version="1.0" encoding="UTF-8" standalone="no"?>
<!-- Created with Inkscape (http://www.inkscape.org/) -->

<svg
   version="1.1"
   id="svg1"
   width="639.64209"
   height="178.79932"
   viewBox="0 0 639.64209 178.79932"
   xmlns:xlink="http://www.w3.org/1999/xlink"
   xmlns="http://www.w3.org/2000/svg"
   xmlns:svg="http://www.w3.org/2000/svg">
  <defs
     id="defs1">
    <linearGradient
       id="linearGradient8">
      <stop
         style="stop-color:#0863cc;stop-opacity:1;"
         offset="0"
         id="stop7" />
      <stop
         style="stop-color:#07d8dd;stop-opacity:1;"
         offset="1"
         id="stop8" />
    </linearGradient>
    <linearGradient
       xlink:href="#linearGradient8"
       id="linearGradient32"
       gradientUnits="userSpaceOnUse"
       gradientTransform="matrix(1.0963231,0,0,1.0963231,4564.2397,2443.4641)"
       x1="2230.2671"
       y1="212.86391"
       x2="2334.8037"
       y2="300.58051" />
  </defs>
  <g
     id="g1"
     transform="translate(-6992.0464,-2650.3251)">
    <path
       style="font-weight:800;font-size:96px;font-family:Manrope;-inkscape-font-specification:'Manrope Ultra-Bold';display:inline;fill:#f0f0f0;fill-opacity:1"
       d="m 7205.0004,2759.7202 c -6.912,0 -12.88,-1.504 -17.904,-4.512 -4.992,-3.008 -8.848,-7.216 -11.568,-12.624 -2.688,-5.408 -4.032,-11.696 -4.032,-18.864 0,-7.168 1.344,-13.456 4.032,-18.864 2.72,-5.408 6.576,-9.616 11.568,-12.624 5.024,-3.008 10.992,-4.512 17.904,-4.512 6.912,0 12.864,1.504 17.856,4.512 5.024,3.008 8.88,7.216 11.568,12.624 2.72,5.408 4.08,11.696 4.08,18.864 0,7.168 -1.36,13.456 -4.08,18.864 -2.688,5.408 -6.544,9.616 -11.568,12.624 -4.992,3.008 -10.944,4.512 -17.856,4.512 z m 0,-12.288 c 4.384,0.064 8.032,-0.88 10.944,-2.832 2.912,-1.952 5.088,-4.72 6.528,-8.304 1.472,-3.584 2.208,-7.776 2.208,-12.576 0,-4.8 -0.736,-8.96 -2.208,-12.48 -1.44,-3.52 -3.616,-6.256 -6.528,-8.208 -2.912,-1.952 -6.56,-2.96 -10.944,-3.024 -4.384,-0.064 -8.032,0.88 -10.944,2.832 -2.912,1.952 -5.104,4.72 -6.576,8.304 -1.44,3.584 -2.16,7.776 -2.16,12.576 0,4.8 0.72,8.96 2.16,12.48 1.472,3.52 3.664,6.256 6.576,8.208 2.912,1.952 6.56,2.96 10.944,3.024 z m 47.1039,10.848 v -21.059 -14.6187 -33.4423 h 27.648 c 4.928,0 8.912,0.992 11.952,2.976 3.04,1.952 5.264,4.416 6.672,7.392 1.408,2.976 2.112,5.984 2.112,9.024 0,3.872 -0.88,7.088 -2.64,9.648 -1.728,2.56 -4.112,4.272 -7.152,5.136 v -2.4 c 4.32,0.896 7.552,2.896 9.696,6 2.176,3.104 3.264,6.576 3.264,10.416 0,4.128 -0.768,7.76 -2.304,10.896 -1.504,3.136 -3.808,5.6 -6.912,7.392 -3.104,1.76 -7.008,2.64 -11.712,2.64 z m 13.248,-12.288 h 16.032 c 1.76,0 3.328,-0.368 4.704,-1.104 1.376,-0.768 2.448,-1.824 3.216,-3.168 0.8,-1.376 1.2,-2.992 1.2,-4.848 0,-1.632 -0.336,-3.088 -1.008,-4.368 -0.672,-1.28 -1.696,-2.288 -3.072,-3.024 -1.344,-0.768 -3.024,-1.152 -5.04,-1.152 h -16.032 z m 0,-29.856 h 14.208 c 1.472,0 2.784,-0.256 3.936,-0.768 1.152,-0.512 2.064,-1.296 2.736,-2.352 0.672,-1.088 1.008,-2.48 1.008,-4.176 0,-2.112 -0.656,-3.888 -1.968,-5.328 -1.312,-1.44 -3.216,-2.16 -5.712,-2.16 h -14.208 z m 51.9039,42.144 v -69.12 h 45.12 v 12.192 h -32.064 v 14.784 h 26.304 v 12.192 h -26.304 v 17.76 h 32.064 v 12.192 z m 60.64,0 v -69.12 h 13.248 l 30.048,46.08 v -46.08 h 13.248 v 69.12 h -13.248 l -30.048,-46.08 v 46.08 z m 88.016,0 v -56.928 h -21.792 v -12.192 h 56.64 v 12.192 h -21.792 v 56.928 z m 44.5281,0 v -69.12 h 29.184 c 0.672,0 1.568,0.032 2.688,0.096 1.152,0.032 2.176,0.128 3.072,0.288 4.128,0.64 7.504,2 10.128,4.08 2.656,2.08 4.608,4.704 5.856,7.872 1.248,3.136 1.872,6.64 1.872,10.512 0,5.792 -1.44,10.752 -4.32,14.88 -2.88,4.096 -7.392,6.624 -13.536,7.584 l -5.76,0.384 h -16.128 v 23.424 z m 38.976,0 -13.632,-28.128 13.44,-2.592 14.976,30.72 z m -25.92,-35.616 h 15.552 c 0.672,0 1.408,-0.032 2.208,-0.096 0.8,-0.064 1.536,-0.192 2.208,-0.384 1.76,-0.48 3.12,-1.28 4.08,-2.4 0.96,-1.152 1.616,-2.416 1.968,-3.792 0.384,-1.408 0.576,-2.736 0.576,-3.984 0,-1.248 -0.192,-2.56 -0.576,-3.936 -0.352,-1.408 -1.008,-2.672 -1.968,-3.792 -0.96,-1.152 -2.32,-1.968 -4.08,-2.448 -0.672,-0.192 -1.408,-0.32 -2.208,-0.384 -0.8,-0.064 -1.536,-0.096 -2.208,-0.096 h -15.552 z m 48.464,35.616 19.12,-69.12 h 19.488 l 21.12,69.12 h -13.44 l -18.816,-60.96 h 2.496 l -18.528,60.96 z m 10.672,-14.4 v -12.192 h 36.48 v 12.192 z"
       id="text1-4-3-1-7-3-1"
       aria-label="OBENTRA" />
    <path
       d="m 7185.0649,2812.3327 v -5.9167 q 1.0834,-1.2292 2.1459,-2.4375 1.0833,-1.2083 2.1666,-2.4167 1.0834,-1.2291 2.1876,-2.4583 l 8.8333,-9.7292 h 5.8542 l -13.1875,14.4584 h -0.3125 z m -3.2291,8.0833 v -31.0417 h 4.625 v 10.0625 7.0209 2.2291 11.7292 z m 19.1042,0 -10.6876,-15.3125 2.8334,-3.6042 13.2708,18.9167 z m 16.1041,0.5 q -3.1458,0 -5.5208,-1.4583 -2.375,-1.4584 -3.7083,-4.0417 -1.3125,-2.5833 -1.3125,-5.9583 0,-3.4167 1.3125,-6 1.3333,-2.6042 3.7083,-4.0625 2.375,-1.4792 5.5208,-1.4792 3.1459,0 5.5,1.4792 2.375,1.4583 3.6875,4.0625 1.3334,2.5833 1.3334,6 0,3.375 -1.3334,5.9583 -1.3125,2.5833 -3.6875,4.0417 -2.3541,1.4583 -5.5,1.4583 z m 0,-3.7917 q 1.875,0 3.2292,-0.9375 1.375,-0.9583 2.1042,-2.6875 0.75,-1.7291 0.75,-4.0416 0,-2.375 -0.75,-4.1042 -0.7292,-1.7292 -2.1042,-2.6875 -1.3542,-0.9583 -3.2292,-0.9583 -1.875,0 -3.25,0.9583 -1.3541,0.9375 -2.1041,2.6875 -0.7292,1.7292 -0.7292,4.1042 0,2.3333 0.7292,4.0625 0.75,1.7083 2.1041,2.6666 1.3542,0.9375 3.25,0.9375 z m 14.4167,3.2917 v -22 h 4.2708 v 4.6458 h -0.4166 q 0.625,-1.6666 1.6666,-2.7916 1.0626,-1.1459 2.4376,-1.7084 1.375,-0.5833 2.875,-0.5833 2.5625,0 4.375,1.4792 1.8333,1.4583 2.25,3.6041 h -0.6875 q 0.4583,-1.4583 1.4791,-2.6041 1.0417,-1.1459 2.5417,-1.8125 1.5,-0.6667 3.3333,-0.6667 2.0625,0 3.7292,0.8958 1.6667,0.8959 2.6458,2.6667 0.9792,1.75 0.9792,4.3958 v 14.4792 h -4.4167 v -14.1042 q 0,-2.3541 -1.3125,-3.4166 -1.3125,-1.0625 -3.1041,-1.0625 -1.4584,0 -2.5209,0.625 -1.0625,0.625 -1.6458,1.7083 -0.5833,1.0833 -0.5833,2.5 v 13.75 h -4.3334 v -14.3958 q 0,-1.8959 -1.2291,-3.0417 -1.2084,-1.1458 -3.0834,-1.1458 -1.2708,0 -2.3958,0.6041 -1.1042,0.6042 -1.7917,1.7917 -0.6667,1.1667 -0.6667,2.9167 v 13.2708 z m 36.4375,8.7084 v -30.7084 h 4.3125 v 3.1667 h 0.062 q 0.6875,-1.2084 1.7292,-2 1.0625,-0.7917 2.3542,-1.1875 1.3125,-0.4167 2.7292,-0.4167 2.8541,0 4.9791,1.4583 2.1459,1.4375 3.3334,4.0209 1.2083,2.5625 1.2083,5.9583 0,3.3958 -1.1875,5.9792 -1.1875,2.5625 -3.3333,4.0208 -2.1459,1.4375 -5.0209,1.4375 -1.4167,0 -2.6875,-0.4167 -1.25,-0.4166 -2.2708,-1.25 -1.0209,-0.8333 -1.75,-2.0833 h -0.062 v 12.0209 z m 10.2709,-12.0626 q 1.7917,0 3.125,-0.875 1.3333,-0.8958 2.0833,-2.5833 0.7709,-1.7083 0.7709,-4.1875 0,-2.5 -0.7709,-4.2083 -0.75,-1.7084 -2.0833,-2.5834 -1.3333,-0.875 -3.125,-0.875 -1.875,0 -3.2709,0.9584 -1.375,0.9375 -2.1458,2.6666 -0.75,1.7084 -0.75,4.0417 0,2.2917 0.75,4.0208 0.7708,1.7292 2.1458,2.6875 1.3959,0.9375 3.2709,0.9375 z m 18.7083,-27.6875 v 31.0417 h -4.3958 v -31.0417 z m 14.3542,31.5417 q -3.2708,0 -5.625,-1.4792 -2.3333,-1.4791 -3.6042,-4.0625 -1.25,-2.6041 -1.25,-5.9166 0,-3.375 1.3125,-5.9584 1.3125,-2.6041 3.625,-4.0833 2.3125,-1.5 5.3125,-1.5 2.3334,0 4.2084,0.8333 1.8958,0.8334 3.25,2.375 1.3541,1.5209 2.0833,3.625 0.7292,2.1042 0.7292,4.6667 v 1.1875 h -18.5417 v -3.3333 h 16.2292 l -1.9375,1.0208 q 0,-2.0417 -0.7292,-3.5417 -0.7292,-1.5208 -2.0833,-2.3333 -1.3334,-0.8333 -3.1667,-0.8333 -1.8125,0 -3.1458,0.8333 -1.3334,0.8125 -2.0834,2.3333 -0.7291,1.5 -0.7291,3.5417 v 1.8958 q 0,2.0834 0.7291,3.6875 0.7292,1.5834 2.1042,2.4792 1.3958,0.8958 3.375,0.8958 1.4375,0 2.5417,-0.4375 1.1041,-0.4583 1.8333,-1.25 0.7292,-0.7916 1.0417,-1.8333 h 4.2291 q -0.3958,2.125 -1.7708,3.75 -1.3542,1.6042 -3.4167,2.5208 -2.0416,0.9167 -4.5208,0.9167 z m 10.6417,-0.5 9.1042,-12.6042 -0.062,2.7292 -8.5417,-12.125 h 5.0208 l 2.625,3.9167 q 0.875,1.3333 1.6875,2.625 0.8334,1.2916 1.6667,2.6041 h -1.8333 q 0.875,-1.3125 1.6875,-2.6041 0.8333,-1.2917 1.7291,-2.625 l 2.6667,-3.9167 h 4.9375 l -8.625,12.125 0.042,-2.75 8.9583,12.625 h -5.0208 l -3.0625,-4.4583 q -0.8542,-1.2917 -1.6667,-2.5209 -0.7917,-1.25 -1.625,-2.5208 h 1.75 q -0.8333,1.2708 -1.6667,2.5208 -0.8125,1.2292 -1.6666,2.5209 l -3.125,4.4583 z m 32.1875,0.5 q -3.2708,0 -5.625,-1.4792 -2.3333,-1.4791 -3.6042,-4.0625 -1.25,-2.6041 -1.25,-5.9166 0,-3.375 1.3125,-5.9584 1.3125,-2.6041 3.6251,-4.0833 2.3125,-1.5 5.3125,-1.5 2.3333,0 4.2083,0.8333 1.8958,0.8334 3.25,2.375 1.3542,1.5209 2.0833,3.625 0.7292,2.1042 0.7292,4.6667 v 1.1875 h -18.5417 v -3.3333 h 16.2292 l -1.9375,1.0208 q 0,-2.0417 -0.7292,-3.5417 -0.7291,-1.5208 -2.0833,-2.3333 -1.3333,-0.8333 -3.1667,-0.8333 -1.8125,0 -3.1458,0.8333 -1.3333,0.8125 -2.0833,2.3333 -0.7292,1.5 -0.7292,3.5417 v 1.8958 q 0,2.0834 0.7292,3.6875 0.7291,1.5834 2.1041,2.4792 1.3959,0.8958 3.375,0.8958 1.4375,0 2.5417,-0.4375 1.1042,-0.4583 1.8333,-1.25 0.7292,-0.7916 1.0417,-1.8333 h 4.2292 q -0.3959,2.125 -1.7709,3.75 -1.3541,1.6042 -3.4166,2.5208 -2.0417,0.9167 -4.5209,0.9167 z m 28.9792,-31.5417 v 31.0417 h -4.625 v -31.0417 z m 3.8333,4.0625 v -4.0625 h 24.3959 v 4.0625 h -9.8542 v 26.9792 h -4.6458 v -26.9792 z m 28.8126,27.3334 q -1.2084,0 -2.0625,-0.8334 -0.8334,-0.8541 -0.8334,-2.0833 0,-1.2292 0.8334,-2.0625 0.8541,-0.8542 2.0625,-0.8542 1.2291,0 2.0625,0.8542 0.8541,0.8333 0.8541,2.0625 0,1.2292 -0.8541,2.0833 -0.8334,0.8334 -2.0625,0.8334 z m 17.44,-0.3542 v -31.0417 h 20.875 v 4.0625 h -16.25 v 9.1459 h 15.0417 v 4.0208 h -15.0417 v 9.75 h 16.25 v 4.0625 z m 24.7709,0 v -22 h 4.3958 v 22 z m 2.1875,-25.7917 q -1.1667,0 -1.9792,-0.7708 -0.7917,-0.7917 -0.7917,-1.9167 0,-1.1458 0.7917,-1.9166 0.8125,-0.7917 1.9792,-0.7917 1.1666,0 1.9791,0.7917 0.8125,0.7708 0.8125,1.9166 0,1.125 -0.8125,1.9167 -0.8125,0.7708 -1.9791,0.7708 z m 11.5625,13.125 v 12.6667 h -4.3959 v -22 h 4.3125 v 5.4583 h -1.0208 q 1.0833,-2.9583 3,-4.4166 1.9375,-1.4792 4.6667,-1.4792 2.2708,0 4.0625,1 1.8125,0.9792 2.8541,2.9167 1.0417,1.9375 1.0417,4.8125 v 13.7083 h -4.3958 v -13.1667 q 0,-2.6458 -1.2709,-3.9791 -1.25,-1.3542 -3.5416,-1.3542 -1.5,0 -2.7084,0.6042 -1.1875,0.6041 -1.8958,1.8958 -0.7083,1.2917 -0.7083,3.3333 z m 30.1458,-9.3333 v 3.625 h -12.8125 v -3.625 z m -8.875,22 v -25.5625 q 0,-1.75 0.7292,-2.9583 0.75,-1.2292 2.1458,-1.875 1.3959,-0.6459 3.375,-0.6459 0.8542,0 1.6042,0 0.7708,0 1.0208,0 v 3.625 q -0.2083,0 -0.875,0 -0.6666,0 -1.0833,0 -1.3542,0 -1.9375,0.6042 -0.5833,0.5833 -0.5833,1.9583 v 24.8542 z m 18.1767,0.3542 q -2.1875,0 -3.9167,-0.75 -1.7083,-0.75 -2.7083,-2.2292 -1,-1.4792 -1,-3.6667 0,-1.875 0.7083,-3.0833 0.7292,-1.2083 1.9584,-1.9167 1.2291,-0.7083 2.7916,-1.0625 1.5625,-0.375 3.2292,-0.5625 2.0833,-0.2708 3.2708,-0.4166 1.2084,-0.1667 1.7084,-0.5 0.5208,-0.3542 0.5208,-1.1459 v -0.1875 q 0,-1.0625 -0.5208,-1.875 -0.5209,-0.8333 -1.5209,-1.3125 -1,-0.4791 -2.3958,-0.4791 -1.3958,0 -2.4792,0.4583 -1.0625,0.4583 -1.7083,1.2708 -0.625,0.7917 -0.7083,1.8125 h -4.3125 q 0.1041,-2.1041 1.2708,-3.7083 1.1667,-1.6042 3.2083,-2.5208 2.0417,-0.9167 4.7917,-0.9167 2.0208,0 3.6458,0.5208 1.625,0.5209 2.75,1.5 1.1459,0.9584 1.7292,2.3125 0.6042,1.3542 0.6042,3.0209 v 15.0833 h -4.3334 v -3.125 h -0.083 q -0.4583,0.8958 -1.25,1.6875 -0.7917,0.7917 -2.0833,1.2917 -1.2709,0.5 -3.1667,0.5 z m 0.8958,-3.5417 q 1.9375,0 3.1875,-0.6875 1.2709,-0.7083 1.875,-1.8542 0.625,-1.1458 0.625,-2.5 v -2.5833 q -0.2291,0.1875 -0.75,0.3542 -0.5,0.1458 -1.2291,0.2916 -0.7292,0.125 -1.5834,0.2709 -0.8541,0.1458 -1.7083,0.25 -1.2083,0.1666 -2.25,0.5625 -1.0417,0.375 -1.6875,1.0625 -0.625,0.6875 -0.625,1.8125 0,0.9375 0.5,1.625 0.5,0.6666 1.4375,1.0416 0.9375,0.3542 2.2083,0.3542 z m 24.3959,3.6875 q -3.1459,0 -5.5,-1.4583 -2.3542,-1.4584 -3.6875,-4.0417 -1.3125,-2.6042 -1.3125,-5.9583 0,-3.3959 1.3125,-6 1.3333,-2.6042 3.6875,-4.0625 2.3541,-1.4792 5.5,-1.4792 1.9583,0 3.625,0.6042 1.6875,0.5833 2.9583,1.6666 1.2708,1.0625 2.0417,2.5417 0.7917,1.4583 1,3.2083 h -4.375 q -0.1667,-0.9375 -0.5834,-1.7083 -0.4166,-0.7708 -1.0833,-1.3333 -0.6667,-0.5625 -1.5625,-0.875 -0.875,-0.3125 -2,-0.3125 -1.8958,0 -3.25,0.9583 -1.3542,0.9583 -2.0833,2.7083 -0.7292,1.7292 -0.7292,4.0834 0,2.3333 0.7292,4.0625 0.7291,1.7083 2.0833,2.6666 1.3542,0.9375 3.25,0.9375 1.125,0 2,-0.2916 0.875,-0.3125 1.5,-0.875 0.625,-0.5625 1.0417,-1.3334 0.4166,-0.7916 0.625,-1.75 h 4.4375 q -0.1875,1.7292 -0.9792,3.1875 -0.7708,1.4584 -2.0625,2.5625 -1.2708,1.0834 -2.9583,1.6875 -1.6667,0.6042 -3.625,0.6042 z m 17.75,-13.1667 v 12.6667 h -4.3958 v -31.0417 h 4.3958 v 14.5 h -1.1042 q 1.0834,-2.9583 3,-4.4166 1.9375,-1.4792 4.6667,-1.4792 2.2709,0 4.0625,1 1.8125,0.9792 2.8542,2.9167 1.0417,1.9375 1.0417,4.8125 v 13.7083 h -4.3959 v -13.1667 q 0,-2.6458 -1.2708,-3.9791 -1.25,-1.3542 -3.5417,-1.3542 -1.5,0 -2.7083,0.6042 -1.1875,0.6041 -1.8959,1.8958 -0.7083,1.2917 -0.7083,3.3333 z m 21.8542,13.0209 q -1.2084,0 -2.0625,-0.8334 -0.8334,-0.8541 -0.8334,-2.0833 0,-1.2292 0.8334,-2.0625 0.8541,-0.8542 2.0625,-0.8542 1.2291,0 2.0625,0.8542 0.8541,0.8333 0.8541,2.0625 0,1.2292 -0.8541,2.0833 -0.8334,0.8334 -2.0625,0.8334 z"
       id="text2-90-9-1-1-0-1"
       style="font-weight:500;font-size:42.6667px;font-family:Inter;-inkscape-font-specification:'Inter Medium';fill:#f0f0f0"
       aria-label="Komplexe IT. Einfach." />
    <circle
       style="fill:none;stroke:url(#linearGradient32);stroke-width:29.941;stroke-dasharray:none"
       id="path2-6-7-0-0-9-1"
       cx="7066.6357"
       cy="2724.9146"
       r="59.618851" />
  </g>
</svg>
